<svg version="1.1" viewBox="0.0 0.0 960.0 720.0" fill="none" stroke="none" stroke-linecap="square" stroke-miterlimit="10" xmlns:xlink="http://www.w3.org/1999/xlink" xmlns="http://www.w3.org/2000/svg"><clipPath id="p.0"><path d="m0 0l960.0 0l0 720.0l-960.0 0l0 -720.0z" clip-rule="nonzero"/></clipPath><g clip-path="url(#p.0)"><path fill="#000000" fill-opacity="0.0" d="m0 0l960.0 0l0 720.0l-960.0 0z" fill-rule="evenodd"/><path fill="#000000" d="m604.10394 349.60184c-18.93103 80.39029 -72.43829 133.49963 -131.6604 130.68134c-59.222107 -2.8182678 -110.14804 -60.8974 -125.30878 -142.91003c-15.160767 -82.01265 9.030487 -168.55582 59.525177 -212.94891c50.49469 -44.393112 115.34653 -36.133392 159.57504 20.323936l-24.122498 38.736633c-28.908325 -48.054367 -73.92798 -58.543175 -109.90518 -25.606018c-35.977234 32.937164 -54.006104 101.14693 -44.013367 166.51851c9.992706 65.37158 45.533417 111.72269 86.764465 113.15564c41.23105 1.4329529 77.94595 -42.407013 89.63107 -107.02521z" fill-rule="evenodd"/><path fill="#000000" d="m417.55994 264.07266c59.68457 -47.803986 134.92969 -23.723328 174.7174 55.914703c39.78766 79.638 31.396729 189.37106 -19.483582 254.79736c-50.88031 65.42639 -127.98224 65.6275 -179.02875 0.46710205l24.122528 -38.736694c33.66922 55.968506 88.10434 59.831238 124.61679 8.842834c36.51245 -50.988434 42.65265 -139.4426 14.056641 -202.49557c-28.59607 -63.05301 -82.17807 -79.20587 -122.66376 -36.978302z" fill-rule="evenodd"/><path fill="#000000" d="m542.4086 405.6729c-4.387146 -4.387146 7.482483 -22.450134 9.288696 -30.965881c1.8062134 -8.515747 2.3223877 -12.386719 1.548523 -20.128601c-0.7738037 -7.741913 -3.3529663 -18.064758 -6.1915894 -26.322845c-2.838562 -8.258087 -14.968933 -21.419067 -10.839905 -23.225708c4.1290894 -1.8066711 27.872314 3.611969 35.614197 12.385803c7.7418823 8.773865 9.805359 26.321533 10.83728 40.257233c1.0319214 13.935699 2.0638428 35.356964 -4.645691 43.356964c-6.7095337 8.0 -31.224426 9.030182 -35.61151 4.643036z" fill-rule="evenodd"/></g></svg>
